# xmcd
# 
# Track frame offsets:
#     151
#     14318
#     37839
#     55022
#     74435
#     95542
#     116567
#     135858
#     152869
#     171638
#     197439
#     217302
# 
# Disc length: 3161
# 
# Revision: 0
# Processed by: cddbd v1.5.2PL0 Copyright (c) Steve Scherf et al.
# Submitted via: fre:ac v1.0.31
# 
DISCID=a50c570c
DTITLE=Various Artist - TNCD172-Nhac Khieu Vu Collection 1
DYEAR=1998
DGENRE=Dance
TTITLE0=Hợp Ca - Vo Cau Muon Dam
TTITLE1=Dalena - Giong Ca Di Vang
TTITLE2=Nguyễn Hưng - Sau Dong
TTITLE3=Ngọc Bích - Unchained Melody
TTITLE4=Phi Phi and Châu Ngọc - Black is black
TTITLE5=Don Hồ - Nhu Giac Chiem Bao
TTITLE6=Kiều Hưng - Khuc Hat Thanh Xuan
TTITLE7=Elvis Phương - Tango Xanh
TTITLE8=Nguyễn Hưng - Co Nho Dem Nao
TTITLE9=Anh Khoa - Phut Cuoi
TTITLE10=Thế Sơn - Sa Mac Thoi Tre
TTITLE11=Duy Quang and Phi Khanh - Tinh Nghia Doi Ta
EXTD=
EXTT0=
EXTT1=
EXTT2=
EXTT3=
EXTT4=
EXTT5=
EXTT6=
EXTT7=
EXTT8=
EXTT9=
EXTT10=
EXTT11=
PLAYORDER=
